<?xml version="1.0" encoding="utf-8"?>
<!-- Generator: Adobe Illustrator 26.4.1, SVG Export Plug-In . SVG Version: 6.00 Build 0)  -->
<svg version="1.1" id="Layer_1" xmlns="http://www.w3.org/2000/svg" xmlns:xlink="http://www.w3.org/1999/xlink" x="0px" y="0px"
	 viewBox="0 0 89 46.5" style="enable-background:new 0 0 89 46.5;" xml:space="preserve">
<style type="text/css">
	.st0{fill:#5864FF;}
	.st1{fill-rule:evenodd;clip-rule:evenodd;fill:#5864FF;}
</style>
<g>
	<g>
		<g>
			<path class="st0" d="M84.1,41.4v-1.9h0.6l0.3,1.3l0.3-1.3h0.6v1.9h-0.4V40l-0.4,1.5h-0.4L84.5,40v1.5H84.1z"/>
		</g>
		<g>
			<path class="st0" d="M86.3,41.4v-1.9h0.8c0.2,0,0.3,0,0.4,0.1c0.1,0,0.2,0.1,0.2,0.2c0.1,0.1,0.1,0.2,0.1,0.3
				c0,0.1,0,0.3-0.1,0.4c-0.1,0.1-0.2,0.2-0.4,0.2c0.1,0,0.2,0.1,0.2,0.2c0.1,0.1,0.1,0.2,0.2,0.3l0.2,0.4h-0.5L87.3,41
				c-0.1-0.1-0.2-0.2-0.2-0.3c0,0-0.1-0.1-0.1-0.1c0,0-0.1,0-0.2,0h-0.1v0.8H86.3z M86.7,40.4H87c0.2,0,0.3,0,0.3,0
				c0,0,0.1,0,0.1-0.1c0,0,0-0.1,0-0.1c0-0.1,0-0.1-0.1-0.2c0,0-0.1-0.1-0.1-0.1c0,0-0.1,0-0.3,0h-0.3L86.7,40.4L86.7,40.4z"/>
		</g>
		<g>
			<path class="st0" d="M86.1,43.4c-1.6,0-2.9-1.3-2.9-2.9c0-1.6,1.3-2.9,2.9-2.9c1.6,0,2.9,1.3,2.9,2.9
				C89,42.1,87.7,43.4,86.1,43.4z M86.1,38.1c-1.3,0-2.4,1.1-2.4,2.4s1.1,2.4,2.4,2.4s2.4-1.1,2.4-2.4
				C88.5,39.2,87.4,38.1,86.1,38.1z"/>
		</g>
	</g>
	<path class="st0" d="M45.4,24.3h-7.7c-0.6,1.3-1.7,2.3-3.8,2.3c-2.3,0-4.2-1.4-4.5-4.5h16.3c0.1-0.7,0.1-1.4,0.1-2.1
		c0-7.2-4.9-11.7-11.7-11.7c-7,0-11.9,4.6-11.9,12.1s5,12.1,11.9,12.1C40.1,32.4,44.3,28.9,45.4,24.3 M34.2,14
		c2.4,0,4.4,1.5,4.4,4.1h-9C30,15.4,31.8,14,34.2,14"/>
	<rect x="48" y="0" class="st1" width="7.2" height="32.3"/>
	<path class="st0" d="M64.8,30.6c1.9,1.1,3.9,1.7,6.2,1.7c6.7,0,12.1-5.4,12.1-12.1c0-6.7-5.4-12.1-12.1-12.1
		c-2.3,0-4.4,0.6-6.2,1.7V8.3h-7.3V43h7.3V30.6z M64.7,19.7c0.3-3.1,2.9-5.6,6.1-5.6c3.4,0,6.1,2.7,6.1,6.1c0,3.4-2.7,6.1-6.1,6.1
		c-2.6,0-4.8-1.6-5.7-4c-0.2-0.7-0.4-1.5-0.4-2.3C64.7,19.9,64.7,19.8,64.7,19.7"/>
	<path class="st0" d="M12.8,22.6c0,2.2-1,3.3-2.7,3.3c-1.9,0-2.9-1.2-2.9-3.7H0c0,6.6,4.3,10.2,10.4,10.2c5.9,0,9.8-3.4,9.8-9.8
		l0-22.6h-7.3L12.8,22.6L12.8,22.6z"/>
	<g>
		<path class="st0" d="M5.9,43.4c0-0.1,0-0.2,0-0.3c0-0.1,0-0.3,0-0.4c-0.2,0.3-0.5,0.5-0.8,0.6c-0.4,0.2-0.8,0.2-1.2,0.2
			c-0.5,0-0.9-0.1-1.3-0.2c-0.4-0.1-0.7-0.4-1-0.6c-0.3-0.3-0.5-0.6-0.7-1c-0.2-0.4-0.2-0.9-0.2-1.5c0-0.5,0.1-1,0.2-1.4
			c0.2-0.4,0.4-0.8,0.7-1.1c0.3-0.3,0.6-0.5,1-0.7c0.4-0.2,0.8-0.2,1.3-0.2c0.4,0,0.7,0.1,1.1,0.2c0.4,0.1,0.6,0.3,0.9,0.6v-3.8h1.8
			v7.9c0,0.2,0,0.5,0,0.9c0,0.4,0.1,0.6,0.1,0.7H5.9z M5.7,40.2c0-0.5-0.2-0.9-0.5-1.2c-0.3-0.3-0.7-0.5-1.2-0.5
			c-0.5,0-0.9,0.2-1.2,0.5c-0.3,0.3-0.5,0.7-0.5,1.2c0,0.5,0.2,1,0.5,1.3c0.3,0.3,0.7,0.5,1.2,0.5c0.5,0,0.9-0.2,1.2-0.5
			C5.5,41.1,5.7,40.7,5.7,40.2z"/>
		<path class="st0" d="M16,40.8h-4.7c0.1,0.4,0.2,0.7,0.5,0.9c0.3,0.2,0.6,0.3,1,0.3c0.7,0,1.2-0.3,1.4-0.8l1.5,0.6
			c-0.2,0.6-0.6,1-1.1,1.3c-0.5,0.3-1.1,0.5-1.8,0.5c-0.5,0-0.9-0.1-1.3-0.2c-0.4-0.2-0.7-0.4-1-0.7c-0.3-0.3-0.5-0.6-0.7-1.1
			c-0.2-0.4-0.2-0.9-0.2-1.4c0-0.5,0.1-1,0.2-1.4c0.2-0.4,0.4-0.8,0.7-1.1c0.3-0.3,0.6-0.5,1-0.7c0.4-0.2,0.8-0.2,1.3-0.2
			c0.5,0,0.9,0.1,1.3,0.2c0.4,0.2,0.7,0.4,1,0.7c0.3,0.3,0.5,0.6,0.6,1.1c0.1,0.4,0.2,0.9,0.2,1.4V40.8z M14.2,39.6
			c0-0.4-0.2-0.7-0.4-0.9c-0.2-0.2-0.6-0.3-0.9-0.3c-0.8,0-1.3,0.4-1.5,1.2H14.2z"/>
		<path class="st0" d="M18.1,33.8h1.8v9.6h-1.8V33.8z"/>
		<path class="st0" d="M22.1,34.9c0-0.3,0.1-0.5,0.3-0.8c0.2-0.2,0.5-0.3,0.8-0.3c0.3,0,0.5,0.1,0.7,0.3c0.2,0.2,0.3,0.5,0.3,0.8
			c0,0.3-0.1,0.5-0.3,0.7c-0.2,0.2-0.5,0.3-0.7,0.3c-0.3,0-0.6-0.1-0.8-0.3C22.2,35.4,22.1,35.2,22.1,34.9z M24.1,37v6.3h-1.8V37
			H24.1z"/>
		<path class="st0" d="M32.8,37l-2.7,6.3h-1.8L25.9,37h2l1.5,4.2L31,37H32.8z"/>
		<path class="st0" d="M40.4,40.8h-4.7c0.1,0.4,0.2,0.7,0.5,0.9c0.3,0.2,0.6,0.3,1,0.3c0.7,0,1.2-0.3,1.4-0.8l1.5,0.6
			c-0.2,0.6-0.6,1-1.1,1.3c-0.5,0.3-1.1,0.5-1.8,0.5c-0.5,0-0.9-0.1-1.3-0.2c-0.4-0.2-0.7-0.4-1-0.7c-0.3-0.3-0.5-0.6-0.7-1.1
			c-0.2-0.4-0.2-0.9-0.2-1.4c0-0.5,0.1-1,0.2-1.4c0.2-0.4,0.4-0.8,0.7-1.1c0.3-0.3,0.6-0.5,1-0.7c0.4-0.2,0.8-0.2,1.3-0.2
			c0.5,0,0.9,0.1,1.3,0.2c0.4,0.2,0.7,0.4,1,0.7c0.3,0.3,0.5,0.6,0.6,1.1c0.1,0.4,0.2,0.9,0.2,1.4V40.8z M38.6,39.6
			c0-0.4-0.2-0.7-0.4-0.9c-0.2-0.2-0.6-0.3-0.9-0.3c-0.8,0-1.3,0.4-1.5,1.2H38.6z"/>
		<path class="st0" d="M45.9,36.9c0.2,0,0.5,0,0.8,0.1v1.7c-0.2-0.1-0.5-0.1-0.7-0.1c-0.5,0-0.9,0.2-1.2,0.5
			c-0.3,0.3-0.4,0.8-0.4,1.4v2.9h-1.8V37h1.7l0.1,0.7c0.1-0.3,0.3-0.5,0.6-0.6C45.2,37,45.5,36.9,45.9,36.9z"/>
		<path class="st0" d="M55.3,37l-3.1,7.8C51.8,46,51,46.5,50,46.5c-0.4,0-1-0.1-1.6-0.3l0.5-1.6c0.3,0.2,0.6,0.3,0.9,0.3
			c0.4,0,0.7-0.2,0.9-0.7l0.2-0.5L48.2,37h1.9l1.7,4.4l1.6-4.4H55.3z"/>
	</g>
</g>
</svg>
